<?xml version="1.0" standalone="no"?>
<!DOCTYPE svg PUBLIC "-//W3C//DTD SVG 20010904//EN"
 "http://www.w3.org/TR/2001/REC-SVG-20010904/DTD/svg10.dtd">
<svg version="1.0" xmlns="http://www.w3.org/2000/svg"
 width="2400.000000pt" height="2400.000000pt" viewBox="0 0 2400.000000 2400.000000"
 preserveAspectRatio="xMidYMid meet">

<g transform="translate(0.000000,2400.000000) scale(0.100000,-0.100000)"
fill="#FF0000" stroke="none">
<path d="M11853 23665 c-39 -17 -49 -32 -113 -174 -136 -303 -339 -594 -559
-803 -113 -108 -190 -163 -334 -240 -61 -33 -166 -95 -232 -138 -163 -105
-230 -146 -365 -220 -216 -118 -377 -237 -612 -451 l-73 -66 -395 -17 c-217
-9 -465 -23 -549 -32 -422 -40 -724 -113 -878 -213 -77 -49 -253 -201 -322
-277 -87 -95 -94 -119 -99 -326 l-4 -176 -146 -67 c-231 -105 -357 -135 -742
-175 -369 -38 -482 -61 -619 -127 -74 -35 -108 -59 -160 -112 -152 -155 -261
-418 -261 -631 0 -265 138 -549 389 -801 112 -111 159 -136 242 -126 91 11
121 48 155 194 l17 72 126 -127 c100 -101 139 -133 189 -157 79 -37 79 -46 6
-184 -173 -327 -364 -521 -529 -538 -68 -7 -133 10 -177 47 l-33 28 40 17 c74
30 88 40 103 74 17 42 9 102 -18 141 -22 31 -100 75 -215 120 -119 47 -223
104 -288 157 -132 109 -154 124 -191 134 -45 12 -114 3 -138 -18 -28 -25 -40
-117 -40 -288 1 -179 0 -173 92 -465 65 -203 88 -259 124 -299 62 -69 109 -47
233 106 l18 22 93 -53 c106 -61 167 -83 270 -97 131 -18 314 17 481 92 175 79
395 265 517 438 75 107 87 115 120 78 32 -38 30 -51 -11 -76 -47 -27 -58 -60
-52 -152 9 -137 81 -252 174 -279 21 -6 124 -15 228 -20 610 -32 710 -63 804
-254 43 -86 73 -106 157 -106 97 0 98 2 105 182 6 177 13 198 65 198 53 0 84
36 84 97 1 69 15 123 38 139 25 17 42 91 42 178 0 87 15 161 41 195 14 20 24
54 30 112 13 110 45 174 130 264 102 107 193 151 374 179 127 21 227 26 670
36 469 11 485 13 912 135 245 69 310 85 340 79 153 -28 497 -206 777 -402 305
-214 639 -563 873 -912 27 -41 94 -154 148 -250 54 -96 123 -213 153 -260 30
-47 117 -211 192 -365 75 -154 155 -310 178 -346 110 -174 240 -529 351 -959
53 -204 73 -316 69 -387 -3 -55 -4 -58 -28 -55 -115 15 -652 283 -1022 510
-65 40 -141 83 -170 95 -29 13 -105 53 -169 89 -185 106 -351 185 -513 247
-83 32 -166 65 -183 74 -17 9 -51 21 -74 26 -91 20 -443 50 -839 71 -569 30
-663 51 -825 187 -98 81 -171 116 -312 150 -225 53 -333 86 -404 123 -286 147
-378 191 -479 224 -155 52 -159 51 -515 -79 -163 -59 -283 -84 -478 -99 -203
-16 -201 -15 -249 -109 -37 -74 -56 -82 -244 -107 -164 -22 -210 -33 -274 -65
-132 -67 -200 -234 -187 -454 7 -116 27 -190 76 -296 65 -136 155 -215 247
-215 69 0 68 0 74 192 7 200 10 210 98 300 l55 57 111 -100 c131 -118 221
-177 331 -216 79 -28 83 -28 315 -28 l235 0 45 -26 c25 -15 83 -49 129 -77
130 -80 227 -109 459 -140 108 -15 185 -50 291 -134 182 -145 502 -267 761
-293 85 -8 131 -36 248 -147 166 -159 259 -203 595 -284 148 -36 187 -63 187
-132 0 -102 133 -220 319 -281 35 -11 119 -28 187 -36 67 -8 135 -20 149 -25
l27 -10 -34 -47 c-60 -84 -71 -88 -221 -88 -73 0 -204 2 -292 5 -185 5 -194 2
-317 -96 -101 -81 -113 -103 -113 -199 1 -87 13 -122 48 -130 12 -3 90 -9 173
-14 126 -6 159 -12 198 -30 44 -22 96 -80 96 -107 0 -7 -26 -65 -59 -130 -32
-66 -62 -130 -66 -144 -37 -121 -8 -508 51 -671 13 -37 24 -69 24 -73 0 -11
-63 25 -109 63 -24 20 -102 100 -172 179 -193 214 -216 231 -360 268 -57 14
-142 44 -189 66 -128 59 -178 68 -420 75 -235 6 -355 -4 -418 -36 -47 -24
-138 -119 -160 -168 -15 -33 -17 -82 -20 -355 l-3 -316 28 -6 c15 -4 60 -7
100 -8 57 -2 76 1 92 16 11 10 37 68 57 128 21 64 49 127 68 151 35 46 110 91
169 102 35 7 38 6 51 -26 8 -19 19 -91 25 -161 20 -215 37 -248 206 -396 134
-118 168 -143 250 -185 76 -40 242 -160 371 -269 113 -95 171 -175 280 -388
62 -121 172 -267 271 -360 127 -118 213 -168 331 -191 73 -14 69 4 47 -204
-25 -240 -19 -466 25 -909 24 -238 25 -297 5 -363 -17 -56 -148 -267 -213
-343 -77 -89 -117 -98 -251 -56 -98 31 -134 33 -161 6 -28 -28 -33 -58 -28
-163 11 -203 114 -307 321 -323 98 -7 127 -23 127 -68 0 -38 10 -56 43 -72 59
-31 162 -3 347 94 66 34 167 76 235 97 148 46 160 52 236 120 67 60 106 71
113 33 29 -154 47 -222 103 -393 122 -371 256 -700 372 -915 89 -163 141 -280
186 -419 47 -145 74 -174 201 -220 274 -100 562 -126 782 -71 98 24 132 25
132 6 0 -22 -163 -198 -331 -356 -345 -326 -534 -487 -622 -531 -32 -16 -151
-92 -265 -168 -231 -155 -367 -233 -617 -356 -448 -219 -910 -397 -1329 -510
-93 -25 -203 -60 -245 -79 -107 -47 -559 -159 -791 -195 -96 -15 -365 -38
-615 -53 -287 -16 -1299 -16 -1540 0 -479 33 -1081 138 -1364 238 -69 25 -202
65 -296 90 -443 118 -838 276 -1400 556 -813 407 -1210 680 -1766 1214 -575
552 -811 850 -1104 1394 -101 186 -177 309 -208 337 -36 31 -71 94 -131 240
-157 379 -366 1060 -445 1451 -86 423 -121 832 -121 1402 0 1006 124 1748 417
2490 75 190 151 354 180 390 17 20 23 22 36 12 19 -16 27 2 27 58 0 31 7 46
34 73 22 22 41 57 55 103 12 38 54 128 93 199 71 129 107 190 355 590 176 285
284 470 412 709 143 267 203 367 255 425 55 62 130 199 345 630 185 369 216
425 232 416 16 -10 94 -172 133 -277 20 -53 40 -127 45 -164 6 -41 19 -80 34
-103 34 -49 37 -69 47 -270 12 -252 42 -331 124 -331 64 0 103 52 207 276 372
798 524 2360 334 3432 -180 1011 -652 1664 -1405 1942 -125 46 -376 108 -467
115 -64 5 -84 3 -113 -12 -74 -38 -46 -131 87 -288 176 -208 357 -536 477
-869 134 -369 133 -792 -4 -1199 -84 -249 -279 -597 -478 -854 -111 -142 -179
-222 -372 -433 -335 -367 -511 -591 -630 -800 -56 -100 -244 -540 -270 -632
-24 -86 -27 -205 -6 -234 12 -16 27 -19 84 -19 90 0 111 15 171 124 66 118
180 268 300 393 82 86 118 116 173 143 38 19 113 63 166 96 283 179 504 296
580 306 40 5 42 4 42 -20 0 -56 -150 -305 -408 -677 -138 -199 -261 -372 -586
-820 -50 -69 -155 -226 -234 -349 -79 -124 -173 -268 -210 -320 -97 -137 -138
-205 -236 -388 -249 -465 -585 -1249 -738 -1722 -33 -102 -95 -292 -138 -422
-109 -326 -158 -534 -239 -999 -89 -512 -96 -605 -96 -1425 0 -849 9 -987 91
-1395 71 -357 138 -603 205 -754 22 -48 78 -201 123 -340 120 -360 225 -615
386 -936 336 -670 831 -1411 1339 -2005 268 -313 507 -553 846 -850 232 -203
465 -416 465 -425 0 -14 86 -71 240 -159 85 -49 245 -144 355 -211 447 -274
731 -429 1040 -565 121 -54 255 -115 297 -136 144 -72 436 -183 1038 -394 151
-53 347 -125 435 -160 88 -35 220 -79 293 -99 178 -48 267 -84 392 -157 195
-114 414 -200 671 -263 261 -64 489 -83 676 -57 114 16 123 11 123 -77 0 -117
20 -134 182 -157 335 -46 561 -26 896 79 63 20 118 36 123 36 5 0 9 -58 9
-130 l0 -130 58 0 c117 0 489 21 552 31 101 16 199 53 342 129 73 39 135 70
140 70 4 0 8 -34 8 -75 0 -68 2 -76 25 -91 34 -22 227 -30 380 -15 216 21 311
66 616 292 260 192 329 228 329 175 0 -29 -12 -40 -103 -86 -94 -48 -117 -81
-117 -165 0 -94 9 -99 182 -103 187 -5 277 8 364 51 38 19 102 47 143 62 128
48 218 117 496 378 83 78 143 127 153 125 11 -2 18 -15 20 -38 6 -82 12 -97
43 -110 85 -36 481 62 564 140 11 10 41 28 67 39 58 24 109 71 205 183 40 48
87 97 103 108 l30 21 10 -25 c14 -37 47 -50 125 -49 259 2 571 214 785 532 24
36 81 137 128 225 107 204 151 271 177 271 33 0 29 -34 -15 -124 -67 -139 -87
-258 -51 -302 18 -23 25 -24 138 -24 154 0 179 12 307 146 184 192 303 361
441 628 49 96 95 176 101 178 6 2 16 -16 22 -40 13 -50 51 -92 88 -100 31 -6
88 9 121 30 32 21 159 181 247 310 148 220 217 377 271 615 51 224 120 421
155 443 22 14 10 -71 -15 -105 -31 -43 -45 -90 -45 -158 0 -43 5 -58 25 -77
21 -22 33 -25 94 -25 114 0 164 29 270 154 192 226 235 366 271 875 21 291 45
431 91 532 18 38 34 67 36 65 2 -2 15 -53 28 -112 41 -184 57 -204 161 -204
74 0 111 18 166 79 48 53 108 160 108 192 0 10 9 23 20 29 38 20 45 -23 45
-285 -1 -331 -27 -572 -105 -965 -53 -269 -98 -438 -185 -695 -116 -343 -139
-473 -96 -526 38 -47 159 -21 221 46 96 105 505 310 661 331 115 16 294 -48
399 -143 40 -36 62 -68 100 -147 211 -442 324 -1134 291 -1784 -18 -360 -34
-481 -140 -1042 -38 -201 -72 -384 -76 -406 -9 -57 10 -74 81 -74 118 0 131
16 503 597 52 82 136 207 186 278 182 258 464 770 861 1565 285 572 443 921
641 1420 291 733 512 1397 753 2263 50 180 117 407 149 505 113 341 276 1044
360 1558 104 631 219 1897 252 2759 13 342 7 1362 -11 1745 -27 615 -43 774
-125 1315 -75 498 -98 630 -166 965 -132 652 -235 1037 -336 1265 -22 50 -73
182 -113 295 -176 495 -522 1309 -687 1620 -120 224 -295 493 -620 951 -203
286 -333 480 -368 549 -51 101 -246 318 -688 766 -587 595 -857 833 -1112 982
-50 29 -85 57 -93 74 -22 47 -92 97 -235 168 -226 113 -393 160 -1002 281
-739 147 -879 197 -1008 359 -57 72 -87 146 -87 213 0 101 47 176 159 254 133
93 171 141 171 218 0 71 -21 85 -125 85 -134 0 -205 -35 -431 -211 -142 -111
-226 -196 -258 -262 -42 -84 -87 -279 -88 -372 0 -93 27 -218 83 -381 58 -168
99 -252 203 -407 52 -78 131 -210 174 -293 44 -83 98 -178 121 -211 101 -149
299 -672 365 -963 97 -434 113 -1239 31 -1553 -34 -131 -135 -373 -213 -512
-83 -148 -143 -221 -264 -327 l-57 -49 -70 99 c-162 229 -333 330 -676 397
-241 47 -405 101 -505 166 -83 54 -101 101 -44 115 57 14 187 -37 204 -81 11
-30 44 -40 127 -40 90 0 98 11 97 133 -1 184 -87 378 -239 540 -160 172 -272
216 -763 297 -145 25 -307 56 -360 70 -117 32 -276 106 -298 140 -43 66 19 85
225 67 204 -18 248 -17 262 9 31 59 -24 161 -184 339 -148 165 -288 278 -381
306 -66 20 -287 57 -501 84 -301 38 -518 85 -561 121 -22 18 -16 39 13 50 15
6 94 14 176 18 175 8 180 12 192 110 13 117 -7 144 -177 234 -135 72 -263 122
-367 143 -125 25 -328 15 -535 -25 -87 -17 -183 -34 -213 -38 -50 -5 -55 -4
-51 13 4 25 88 74 175 104 53 18 96 25 194 28 l126 4 6 171 c4 109 11 194 22
231 38 140 124 245 256 311 41 21 82 44 92 53 23 21 22 87 -5 253 -16 99 -22
180 -22 309 l-1 175 42 125 c24 69 59 157 79 195 33 63 37 80 41 171 5 94 4
103 -16 123 -16 16 -33 21 -76 21 -31 0 -68 -6 -83 -14 -42 -22 -121 -109
-218 -241 -399 -540 -1065 -1067 -1484 -1176 -61 -15 -84 -18 -100 -9 -28 15
-26 24 21 75 49 53 134 108 244 159 98 45 125 69 125 110 0 17 -9 91 -20 165
-52 358 -49 596 14 907 50 247 53 287 27 313 -17 17 -33 21 -78 21 -32 -1 -72
-7 -90 -15z m-4795 -4742 c-4 -24 -109 -106 -184 -145 -53 -27 -64 -30 -78
-19 -19 16 -42 88 -32 98 4 4 41 10 82 14 60 6 85 14 122 38 53 35 95 41 90
14z m932 -191 c0 -20 -40 -42 -91 -52 -67 -13 -77 -23 -85 -85 -3 -28 -7 -60
-10 -72 -4 -24 -49 -43 -101 -43 -36 0 -83 -36 -83 -64 0 -24 -41 -46 -85 -46
-66 0 -104 -27 -129 -90 -28 -73 -52 -78 -107 -20 -22 23 -39 51 -39 64 0 70
133 174 375 292 201 98 355 148 355 116z m4500 -4425 c52 -39 121 -93 154
-119 218 -182 645 -411 1006 -542 225 -81 280 -111 308 -166 l24 -45 -6 -295
c-11 -617 37 -1151 134 -1485 28 -98 41 -184 30 -205 -9 -18 -82 -42 -196 -64
-123 -25 -233 -92 -279 -171 -37 -63 -53 -155 -65 -390 -33 -651 -50 -848 -82
-970 -23 -88 -34 -145 -43 -218 -7 -50 -42 -103 -60 -89 -67 47 -160 329 -214
652 -38 220 -75 329 -194 563 -155 303 -168 364 -212 962 -34 462 -86 813
-149 1015 -13 41 -31 120 -41 174 -22 133 -45 190 -105 261 -90 107 -282 265
-376 310 -57 27 -104 75 -104 106 0 34 36 93 99 162 131 144 169 297 137 542
-9 67 -19 136 -22 154 l-7 33 84 -53 c46 -28 127 -84 179 -122z"/>
</g>
</svg>
